<?xml version="1.0" encoding="UTF-8"?>
<svg version="1.1" xmlns="http://www.w3.org/2000/svg" width="500" height="500">
<path d="M0 0 C3.25320412 2.8916321 6.36843016 5.90685768 9.4375 8.9921875 C10.15196289 9.7027832 10.15196289 9.7027832 10.88085938 10.42773438 C18.88842572 18.4794804 25.37103813 27.41271977 31.4375 36.9921875 C31.84242676 37.63140137 32.24735352 38.27061523 32.66455078 38.92919922 C48.08734397 63.73424464 54.8944055 91.91812477 54.8125 120.9296875 C54.81162384 121.6929837 54.81074768 122.45627991 54.80984497 123.2427063 C54.65479321 164.40760876 39.27295902 202.50507969 10.4375 231.9921875 C9.49369939 232.99637035 8.55100742 234.00159623 7.609375 235.0078125 C-8.30489797 251.76758994 -28.78648761 264.39753948 -50.5625 271.9921875 C-52.31240234 272.64960937 -52.31240234 272.64960937 -54.09765625 273.3203125 C-92.56523617 286.7495833 -137.83181558 283.27948837 -174.5625 265.9921875 C-201.26202696 252.47217983 -201.26202696 252.47217983 -206.73828125 239.8671875 C-209.36618958 230.70064471 -208.2803715 222.68882292 -204.52734375 214.17578125 C-204.06130989 213.0828627 -204.06130989 213.0828627 -203.58586121 211.96786499 C-202.58890433 209.63780539 -201.57630487 207.31495907 -200.5625 204.9921875 C-199.90334441 203.46152147 -199.24497663 201.93051594 -198.58740234 200.39916992 C-196.53421671 195.63077169 -194.45613257 190.87344036 -192.375 186.1171875 C-191.62348994 184.39634136 -190.87202574 182.67547519 -190.12060547 180.95458984 C-184.89227769 168.99008725 -179.61055587 157.05011093 -174.29296875 145.125 C-171.67648536 139.25561616 -169.08436469 133.37577245 -166.5 127.4921875 C-155.19707378 101.76814055 -143.86978057 76.05310493 -132.41015625 50.3984375 C-130.58802583 46.31521764 -128.78864447 42.22299338 -127.00708008 38.12197876 C-125.83809042 35.43558158 -124.65986067 32.75328923 -123.48040771 30.07147217 C-122.91827981 28.78722148 -122.36024729 27.50116895 -121.80670166 26.2131958 C-121.03947097 24.42912069 -120.25634468 22.65190725 -119.47265625 20.875 C-119.03058838 19.85809082 -118.58852051 18.84118164 -118.13305664 17.79345703 C-116.02996622 14.04235187 -113.4550586 10.9384668 -109.5625 8.9921875 C-105.20424615 8.62899968 -102.50186448 8.61644171 -98.4375 10.2421875 C-91.07784634 17.28185622 -87.70041715 29.06010517 -83.75 38.3046875 C-82.9061898 40.26752916 -82.06099707 42.22977195 -81.21572876 44.19198608 C-80.61588512 45.58458512 -80.01642496 46.9773494 -79.41732788 48.37026978 C-76.02408493 56.25583372 -72.58902892 64.12309365 -69.15438843 71.99069214 C-59.26589775 94.64503386 -49.41520165 117.315431 -39.66436768 140.02941895 C-39.02863625 141.51013098 -38.39254666 142.99068931 -37.75604248 144.47106934 C-34.10138126 152.97377062 -30.49964217 161.49419331 -27.02383423 170.07185364 C-24.57093637 176.08860788 -21.84020543 181.95699716 -19.04296875 187.8203125 C-16.54184771 193.17891483 -14.99376486 196.963595 -15.5625 202.9921875 C-18.5625 204.9921875 -18.5625 204.9921875 -21.02441406 204.82714844 C-23.92178987 203.87399095 -25.11317381 202.85685277 -27.171875 200.6328125 C-28.16682983 199.58685913 -28.16682983 199.58685913 -29.18188477 198.51977539 C-29.88498779 197.76817139 -30.58809082 197.01656738 -31.3125 196.2421875 C-58.45516115 168.22329268 -95.19867757 148.36547409 -134.5625 145.9921875 C-133.5625 143.9921875 -133.5625 143.9921875 -130.40234375 142.890625 C-107.07953562 137.43360987 -79.50527351 146.38856664 -59.70117188 158.64404297 C-54.5410761 161.93170486 -49.52995603 165.4215394 -44.5625 168.9921875 C-42.57415106 170.34442481 -40.5713813 171.67055506 -38.5625 172.9921875 C-42.10813664 163.28833985 -46.87576755 154.21465995 -51.56396484 145.03027344 C-56.03470267 136.25826216 -60.21283177 127.40061621 -64.21337891 118.40405273 C-66.48927381 113.30980401 -68.85125485 108.28062832 -71.375 103.3046875 C-74.68328159 96.77928438 -77.89602879 90.21264887 -81.0625 83.6171875 C-81.55516357 82.59214111 -82.04782715 81.56709473 -82.55541992 80.51098633 C-85.68388797 73.97871375 -88.76467142 67.42594549 -91.8203125 60.859375 C-92.55134454 59.29211402 -93.28246419 57.72489389 -94.01367188 56.15771484 C-95.45173937 53.07532604 -96.88129043 49.98916535 -98.30664062 46.90087891 C-98.96713787 45.48325394 -99.62793085 44.06576671 -100.2890625 42.6484375 C-100.59063263 41.98923309 -100.89220276 41.33002869 -101.20291138 40.65084839 C-102.67324263 37.18744395 -102.67324263 37.18744395 -105.5625 34.9921875 C-108.49431432 41.11526874 -111.10536091 47.30470849 -113.4375 53.6796875 C-115.39503606 59.01425579 -117.49074067 64.2433937 -119.8125 69.4296875 C-123.41313072 77.48195126 -126.67496921 85.66114386 -129.92285156 93.86108398 C-137.6852335 113.44715867 -137.6852335 113.44715867 -140.625 119.0546875 C-142.16141213 122.02957313 -143.33097493 125.01948833 -144.4375 128.1796875 C-145.82755921 132.1337441 -147.40719918 135.89743245 -149.2109375 139.6796875 C-152.8256798 147.43991244 -156.05890843 155.34175117 -159.28225708 163.27099609 C-160.68791915 166.72796127 -162.10094332 170.1819022 -163.51344299 173.63607788 C-164.55829405 176.19152094 -165.6022105 178.74734424 -166.64599609 181.30322266 C-169.12544269 187.37183787 -171.61454184 193.43631908 -174.125 199.4921875 C-174.51445801 200.43416992 -174.90391602 201.37615234 -175.30517578 202.34667969 C-178.07668401 208.98822559 -181.10732836 215.46352224 -184.3828125 221.87109375 C-185.78933806 225.59233192 -186.13188245 228.04718052 -185.5625 231.9921875 C-182.00726348 236.77753585 -177.01179567 239.25108759 -171.8125 241.9296875 C-170.55385132 242.58155029 -170.55385132 242.58155029 -169.26977539 243.24658203 C-136.64623265 259.74718615 -98.46844471 262.8224644 -63.5625 251.9921875 C-48.35848259 246.9241817 -32.2621461 239.5230904 -20 229.0546875 C-17.5625 226.9921875 -17.5625 226.9921875 -15.5625 226.9921875 C-15.5625 226.3321875 -15.5625 225.6721875 -15.5625 224.9921875 C-14.12890625 223.58203125 -14.12890625 223.58203125 -12.125 221.9296875 C12.89913995 200.41770754 28.75491403 168.34378666 32.15625 135.5078125 C34.94176389 96.47490634 25.8474138 59.6323138 0.2109375 29.36328125 C-8.21678062 18.97381144 -8.21678062 18.97381144 -18.5625 10.9921875 C-18.5625 10.3321875 -18.5625 9.6721875 -18.5625 8.9921875 C-19.325625 8.7034375 -20.08875 8.4146875 -20.875 8.1171875 C-23.5625 6.9921875 -23.5625 6.9921875 -26.5625 4.9921875 C-26.5625 4.3321875 -26.5625 3.6721875 -26.5625 2.9921875 C-27.5525 2.9921875 -28.5425 2.9921875 -29.5625 2.9921875 C-29.5625 2.3321875 -29.5625 1.6721875 -29.5625 0.9921875 C-30.09875 0.8890625 -30.635 0.7859375 -31.1875 0.6796875 C-34.18752044 -0.18873947 -36.8004535 -1.56401546 -39.5625 -3.0078125 C-39.5625 -3.6678125 -39.5625 -4.3278125 -39.5625 -5.0078125 C-40.3771875 -5.26820312 -41.191875 -5.52859375 -42.03125 -5.796875 C-45.32831352 -6.92750519 -48.54509022 -8.17318458 -51.77856445 -9.4699707 C-90.09144394 -24.78283617 -129.62349176 -24.20607445 -167.5625 -8.0078125 C-175.8117552 -4.24327849 -183.44583806 0.2932519 -190.70703125 5.7421875 C-192.5625 6.9921875 -192.5625 6.9921875 -194.5625 6.9921875 C-194.5625 7.6521875 -194.5625 8.3121875 -194.5625 8.9921875 C-195.91185524 10.15269392 -197.32103148 11.24375221 -198.75 12.3046875 C-227.25313397 34.67984924 -245.73614577 69.50756645 -250.48144531 105.30102539 C-253.60926284 131.54910138 -250.10460875 155.38475988 -240.5625 179.9921875 C-239.9889212 181.51358384 -239.41720272 183.03568329 -238.84765625 184.55859375 C-238.42355469 185.69167969 -237.99945313 186.82476562 -237.5625 187.9921875 C-238.2225 187.9921875 -238.8825 187.9921875 -239.5625 187.9921875 C-243.2671925 183.0198416 -245.92425136 178.21511173 -246.5625 171.9921875 C-247.2225 171.6621875 -247.8825 171.3321875 -248.5625 170.9921875 C-251.25637425 165.18131738 -252.42804924 158.60723358 -253.8046875 152.390625 C-254.30648633 150.14029005 -254.83226167 147.89515671 -255.3828125 145.65625 C-264.58987491 108.02349974 -255.26066775 67.77116977 -235.5625 34.9921875 C-233.04571777 31.1973518 -230.36346436 27.58074976 -227.5625 23.9921875 C-226.98371094 23.20972656 -226.40492188 22.42726562 -225.80859375 21.62109375 C-200.89253216 -11.15186847 -163.88200589 -30.88936896 -123.5625 -37.0078125 C-79.13688061 -42.71830468 -33.97548868 -29.23339413 0 0 Z " fill="#AE7623" transform="translate(355.5625,130.0078125)"/>
<path d="M0 0 C1.26263672 -0.00580078 1.26263672 -0.00580078 2.55078125 -0.01171875 C7.74735459 -0.00366205 12.73214458 0.37673235 17.875 1.125 C17.875 1.455 17.875 1.785 17.875 2.125 C16.78167358 2.154729 16.78167358 2.154729 15.66625977 2.18505859 C-35.53903665 3.64495599 -77.16601272 15.76812131 -113.70703125 53.3359375 C-141.33416681 82.62294587 -153.27758318 122.51805057 -152.125 162.125 C-151.80428961 169.7434674 -151.80428961 169.7434674 -150.125 177.125 C-149.135 177.785 -148.145 178.445 -147.125 179.125 C-146.58221599 181.94144591 -146.19345931 184.65729896 -145.875 187.5 C-144.43954514 198.28354351 -141.00659415 208.01114309 -137.125 218.125 C-136.5508056 219.65186385 -135.97781076 221.17917958 -135.40625 222.70703125 C-134.77203125 224.39892578 -134.77203125 224.39892578 -134.125 226.125 C-134.785 226.125 -135.445 226.125 -136.125 226.125 C-139.8296925 221.1526541 -142.48675136 216.34792423 -143.125 210.125 C-143.785 209.795 -144.445 209.465 -145.125 209.125 C-147.81887425 203.31412988 -148.99054924 196.74004608 -150.3671875 190.5234375 C-150.86898633 188.27310255 -151.39476167 186.02796921 -151.9453125 183.7890625 C-161.15237491 146.15631224 -151.82316775 105.90398227 -132.125 73.125 C-129.60821777 69.3301643 -126.92596436 65.71356226 -124.125 62.125 C-123.54621094 61.34253906 -122.96742188 60.56007812 -122.37109375 59.75390625 C-97.45021057 26.97460203 -60.44710682 7.25429245 -20.125 1.125 C-13.40764912 0.24783848 -6.76959324 -0.03138915 0 0 Z " fill="#55534E" transform="translate(252.125,91.875)"/>
<path d="M0 0 C0.33 0 0.66 0 1 0 C0.4620632 4.89970128 -0.57299456 8.89574406 -2.5546875 13.40234375 C-3.08143066 14.60987305 -3.60817383 15.81740234 -4.15087891 17.06152344 C-4.72531968 18.35363403 -5.30003331 19.64562335 -5.875 20.9375 C-6.46719852 22.28523391 -7.05882543 23.63321912 -7.64990234 24.98144531 C-11.65409582 34.08700004 -15.78840301 43.13103304 -19.97192383 52.15551758 C-23.82085574 60.49987895 -27.39537618 68.94834378 -30.94360352 77.42407227 C-34.25757682 85.31507595 -37.73415373 93.11690972 -41.30541992 100.89428711 C-44.67129851 108.23627164 -47.90503526 115.63013052 -51.10961914 123.04370117 C-54.35877629 130.5506356 -57.66912536 138.02899827 -61 145.5 C-66.02816802 156.78264008 -70.97499497 168.0985373 -75.88476562 179.43310547 C-76.96421807 181.91764204 -78.05061654 184.39898478 -79.140625 186.87890625 C-79.46764404 187.62309814 -79.79466309 188.36729004 -80.1315918 189.1340332 C-80.7309265 190.496329 -81.33127 191.85818165 -81.93286133 193.21948242 C-85.6168543 201.5975771 -86.94793837 211.07286024 -83.5625 219.875 C-74.73907063 236.30901622 -49.25766833 245.28817794 -32.359375 250.46704102 C-23.61084879 253.03068534 -14.90944455 254.90540166 -5.86401367 256.06347656 C-0.1906613 256.8093387 -0.1906613 256.8093387 2 259 C-4.16974937 259.18523497 -9.82230596 258.54931068 -15.875 257.375 C-17.24277588 257.1109436 -17.24277588 257.1109436 -18.63818359 256.84155273 C-31.61251006 254.20505257 -44.17903851 249.98529696 -56 244 C-56.58378418 243.70867187 -57.16756836 243.41734375 -57.76904297 243.1171875 C-69.56360642 237.1973454 -81.11757011 231.07001164 -87.125 218.6796875 C-89.98108086 209.93293987 -88.61271917 201.33647979 -84.9765625 193.1640625 C-84.66502731 192.43686005 -84.35349213 191.70965759 -84.03251648 190.9604187 C-83.03314311 188.635131 -82.01676938 186.3177254 -81 184 C-80.34015891 182.46993135 -79.68154629 180.93933233 -79.02416992 179.40820312 C-76.97182724 174.63912985 -74.89374725 169.88151496 -72.8125 165.125 C-72.06098994 163.40415386 -71.30952574 161.68328769 -70.55810547 159.96240234 C-65.32977769 147.99789975 -60.04805587 136.05792343 -54.73046875 124.1328125 C-52.11398536 118.26342866 -49.52186469 112.38358495 -46.9375 106.5 C-41.82679634 94.86867743 -36.69682242 83.24591287 -31.5625 71.625 C-31.1487915 70.68853638 -30.73508301 69.75207275 -30.30883789 68.78723145 C-25.36669792 57.6014472 -20.41329763 46.42085242 -15.4375 35.25 C-10.21823087 23.53177629 -5.0904659 11.77469176 0 0 Z " fill="#715F46" transform="translate(236,151)"/>
<path d="M0 0 C0.33 0 0.66 0 1 0 C0.5939497 5.68470424 -0.45912189 10.94263736 -1.9375 16.4375 C-6.46483177 33.71531803 -9.73786455 57.78640635 -4 75 C-3.01 75.66 -2.02 76.32 -1 77 C-0.45721599 79.81644591 -0.06845931 82.53229896 0.25 85.375 C1.68545486 96.15854351 5.11840585 105.88614309 9 116 C9.5741944 117.52686385 10.14718924 119.05417958 10.71875 120.58203125 C11.35296875 122.27392578 11.35296875 122.27392578 12 124 C11.34 124 10.68 124 10 124 C6.2953075 119.0276541 3.63824864 114.22292423 3 108 C2.34 107.67 1.68 107.34 1 107 C-1.69387425 101.18912988 -2.86554924 94.61504608 -4.2421875 88.3984375 C-4.74398633 86.14810255 -5.26976167 83.90296921 -5.8203125 81.6640625 C-12.48471726 54.42411681 -9.03306027 26.26278634 0 0 Z " fill="#4E4E4E" transform="translate(106,194)"/>
<path d="M0 0 C2 1 2 1 3.625 4.125 C13.36195628 21.35731111 41.06652763 29.9242356 58.96875 35.00366211 C65.95178586 36.87804921 72.96661128 38.14559067 80.13598633 39.06347656 C85.8093387 39.8093387 85.8093387 39.8093387 88 42 C81.83025063 42.18523497 76.17769404 41.54931068 70.125 40.375 C69.21314941 40.1989624 68.30129883 40.0229248 67.36181641 39.84155273 C54.38748994 37.20505257 41.82096149 32.98529696 30 27 C29.41621582 26.70867187 28.83243164 26.41734375 28.23095703 26.1171875 C5.67674066 14.79693812 5.67674066 14.79693812 0 4 C0 2.68 0 1.36 0 0 Z " fill="#806845" transform="translate(150,368)"/>
<path d="M0 0 C0 0.33 0 0.66 0 1 C-1.09332642 1.029729 -1.09332642 1.029729 -2.20874023 1.06005859 C-26.97167037 1.76606637 -49.66330621 3.78814174 -73.12109375 12.046875 C-76 13 -76 13 -78 13 C-78 12.34 -78 11.68 -78 11 C-53.15687436 0.96912827 -26.76503813 -3.8323365 0 0 Z " fill="#78603D" transform="translate(270,93)"/>
<path d="M0 0 C0 0.33 0 0.66 0 1 C-5.61 0.67 -11.22 0.34 -17 0 C-17 0.66 -17 1.32 -17 2 C-16.37996094 2.08636719 -15.75992188 2.17273438 -15.12109375 2.26171875 C-6.73353782 3.59249545 1.02257352 6.17937147 9 9 C9 9.66 9 10.32 9 11 C4.34250132 10.17262 -0.14525391 8.8598811 -4.6875 7.5625 C-14.80452701 4.72369846 -24.49779221 2.75871463 -35 2 C-34 0 -34 0 -30.88671875 -1.109375 C-20.7025226 -3.44304005 -10.12305103 -2.11132535 0 0 Z " fill="#8F6F3E" transform="translate(256,274)"/>
<path d="M0 0 C0.99 0.33 1.98 0.66 3 1 C2.47792969 1.52464844 1.95585937 2.04929688 1.41796875 2.58984375 C-14.13702112 18.96208353 -24.0815678 39.68844755 -31 61 C-32.13966578 57.65036122 -31.87357888 55.82526019 -30.62890625 52.54296875 C-30.30599609 51.68493652 -29.98308594 50.8269043 -29.65039062 49.94287109 C-29.29138672 49.03359863 -28.93238281 48.12432617 -28.5625 47.1875 C-28.19705078 46.24986816 -27.83160156 45.31223633 -27.45507812 44.34619141 C-20.78782325 27.61229656 -11.36595459 13.93538581 0 0 Z " fill="#545352" transform="translate(140,154)"/>
<path d="M0 0 C0.33 0 0.66 0 1 0 C1.16276042 1.82291667 1.32552083 3.64583333 1.48828125 5.46875 C2.23007003 9.13805635 3.63129907 12.52921559 5 16 C5.6082723 17.57283957 6.21634036 19.14575815 6.82421875 20.71875 C7.44481206 22.31269493 8.06590926 23.90644377 8.6875 25.5 C9.00783203 26.32242187 9.32816406 27.14484375 9.65820312 27.9921875 C10.43835515 29.99496582 11.21911365 31.99750788 12 34 C11.01 34.495 11.01 34.495 10 35 C3.63006804 25.14316339 3.63006804 25.14316339 3 19 C2.34 18.67 1.68 18.34 1 18 C0.18359375 16.07421875 0.18359375 16.07421875 -0.5625 13.6875 C-0.81128906 12.90761719 -1.06007813 12.12773437 -1.31640625 11.32421875 C-1.54199219 10.55722656 -1.76757812 9.79023438 -2 9 C-2.22300781 8.30003906 -2.44601563 7.60007812 -2.67578125 6.87890625 C-3 5 -3 5 -1.625 2.25 C-1.08875 1.5075 -0.5525 0.765 0 0 Z " fill="#4E4C4A" transform="translate(106,283)"/>
<path d="M0 0 C0.66 0 1.32 0 2 0 C2.76953125 1.79557292 3.5390625 3.59114583 4.30859375 5.38671875 C4.80456055 6.54381348 5.30052734 7.7009082 5.81152344 8.89306641 C6.9000335 11.43284065 7.98785716 13.97290742 9.07519531 16.51318359 C11.63925352 22.50195494 14.20807834 28.48839612 16.80078125 34.46484375 C17.42545288 35.90887573 17.42545288 35.90887573 18.06274414 37.38208008 C18.84155346 39.18136502 19.62319686 40.97942645 20.40795898 42.77612305 C20.75286377 43.57445557 21.09776855 44.37278809 21.453125 45.1953125 C21.75379883 45.88641113 22.05447266 46.57750977 22.36425781 47.28955078 C23 49 23 49 23 51 C22.34 51 21.68 51 21 51 C18.49105632 45.28931896 15.98252426 39.57845735 13.47436523 33.86743164 C12.62193797 31.92662732 11.76940036 29.98587147 10.91674805 28.04516602 C9.68769431 25.24768761 8.45904405 22.4500323 7.23046875 19.65234375 C6.85222458 18.7916478 6.47398041 17.93095184 6.08427429 17.04417419 C5.37654264 15.4321435 4.67063456 13.81931048 3.96688843 12.20553589 C3.34335422 10.7832135 2.71178871 9.36437199 2.07046509 7.94998169 C0.79680226 5.10361972 0 3.15928097 0 0 Z " fill="#A8772D" transform="translate(298,233)"/>
<path d="M0 0 C0.495 0.99 0.495 0.99 1 2 C-0.05316406 2.23074219 -1.10632813 2.46148437 -2.19140625 2.69921875 C-11.03422652 4.68331043 -19.57139966 7.03680242 -28.12109375 10.046875 C-31 11 -31 11 -33 11 C-33 10.34 -33 9.68 -33 9 C-9.28093645 -0.30100334 -9.28093645 -0.30100334 0 0 Z " fill="#6C5D45" transform="translate(225,95)"/>
<path d="M0 0 C3.46212175 1.15404058 3.65572314 1.62890282 5.33984375 4.68359375 C5.76152832 5.44196533 6.18321289 6.20033691 6.61767578 6.98168945 C7.05321777 7.79210693 7.48875977 8.60252441 7.9375 9.4375 C8.38335449 10.25629639 8.82920898 11.07509277 9.28857422 11.91870117 C17.27726137 26.77860155 17.27726137 26.77860155 17 34 C15.19807207 31.29710811 13.98191171 28.69170646 12.74047852 25.70556641 C9.59888831 18.15334307 5.97854613 11.32012937 1.50390625 4.4765625 C0 2 0 2 0 0 Z " fill="#C88420" transform="translate(383,164)"/>
<path d="M0 0 C0 0.66 0 1.32 0 2 C-2.21283421 3.82286753 -4.42510777 5.51777154 -6.75 7.1875 C-7.42651611 7.67637695 -8.10303223 8.16525391 -8.80004883 8.66894531 C-25.06175456 20.27271795 -25.06175456 20.27271795 -29.33203125 19.671875 C-30.15767578 19.33929688 -30.15767578 19.33929688 -31 19 C-30.16339844 18.55011719 -29.32679688 18.10023438 -28.46484375 17.63671875 C-20.8133258 13.43571121 -13.73332345 8.81753157 -6.80053711 3.5065918 C-2.19097069 0 -2.19097069 0 0 0 Z " fill="#C58628" transform="translate(354,372)"/>
<path d="M0 0 C0.33 0 0.66 0 1 0 C1.50853907 6.31436007 -0.18761186 10.7175591 -2.75 16.4375 C-3.09804688 17.24509766 -3.44609375 18.05269531 -3.8046875 18.88476562 C-4.84253759 21.26989889 -5.91382486 23.63652658 -7 26 C-7.34740234 26.77359863 -7.69480469 27.54719727 -8.05273438 28.34423828 C-8.95387225 30.26966955 -9.96883081 32.14096123 -11 34 C-12.485 34.495 -12.485 34.495 -14 35 C-12.82480002 31.95296088 -11.54724727 28.9677211 -10.1953125 25.99609375 C-6.30676941 17.44541975 -2.68733231 9.01670709 0 0 Z " fill="#D48B20" transform="translate(401,297)"/>
<path d="M0 0 C4.91462617 2.53688322 8.37549625 6.14693084 12.1875 10.0625 C12.81591797 10.69994141 13.44433594 11.33738281 14.09179688 11.99414062 C15.25255958 13.17228374 16.41124977 14.35247516 17.56713867 15.53540039 C18.70406706 16.69751206 19.85041101 17.85041101 21 19 C16.86382578 18.48628707 14.92535531 17.42346491 12.01171875 14.47265625 C11.30595703 13.76302734 10.60019531 13.05339844 9.87304688 12.32226562 C9.15181641 11.57654297 8.43058594 10.83082031 7.6875 10.0625 C6.94693359 9.32064453 6.20636719 8.57878906 5.44335938 7.81445312 C0 2.28078917 0 2.28078917 0 0 Z " fill="#B47B27" transform="translate(314,314)"/>
<path d="M0 0 C0.33 0 0.66 0 1 0 C1.37054944 9.15394347 1.35867502 18.33378915 -2 27 C-2.99 27.33 -3.98 27.66 -5 28 C-4.88406494 27.40050537 -4.76812988 26.80101074 -4.64868164 26.18334961 C-4.11821791 23.43506501 -3.59034065 20.68628955 -3.0625 17.9375 C-2.88009766 16.99455078 -2.69769531 16.05160156 -2.50976562 15.08007812 C-1.54850968 10.06406984 -0.66720776 5.06375577 0 0 Z " fill="#DA8F1E" transform="translate(407,268)"/>
<path d="M0 0 C1.051875 -0.02126953 1.051875 -0.02126953 2.125 -0.04296875 C4 0.1875 4 0.1875 6 2.1875 C4 3.1875 4 3.1875 0.75 2.9375 C-4.08111925 3.25957462 -5.69705174 4.73092623 -9 8.1875 C-10.39819512 10.8389482 -10.39819512 10.8389482 -11 13.1875 C-11.66 12.8575 -12.32 12.5275 -13 12.1875 C-11.72232235 7.19294191 -9.87088216 4.57452189 -6 1.1875 C-3.77109005 0.07304502 -2.46944894 0.02269714 0 0 Z " fill="#7D6239" transform="translate(250,138.8125)"/>
<path d="M0 0 C0.33 0.99 0.66 1.98 1 3 C-4.28 8.28 -9.56 13.56 -15 19 C-15.99 18.67 -16.98 18.34 -18 18 C-17.28714844 17.3709375 -16.57429688 16.741875 -15.83984375 16.09375 C-10.15800967 11.01604094 -4.83896054 5.91245008 0 0 Z " fill="#D38D25" transform="translate(372,352)"/>
<path d="M0 0 C6.72211539 0.9166521 11.30190665 8.14018348 15.625 12.875 C16.305625 13.926875 16.305625 13.926875 17 15 C16.67 15.99 16.34 16.98 16 18 C14.26907429 16.1265988 12.54023837 14.25133718 10.8125 12.375 C10.32974609 11.85292969 9.84699219 11.33085937 9.34960938 10.79296875 C6.11982129 7.28138707 3.02821458 3.68700349 0 0 Z " fill="#BF8124" transform="translate(357,134)"/>
<path d="M0 0 C1.60122557 2.40183836 2.53585561 4.15178154 3.5078125 6.79296875 C3.77207031 7.50517578 4.03632812 8.21738281 4.30859375 8.95117188 C4.71271484 10.0581543 4.71271484 10.0581543 5.125 11.1875 C5.40214844 11.93708984 5.67929688 12.68667969 5.96484375 13.45898438 C6.64670402 15.30470959 7.32381559 17.15218787 8 19 C7.34 19 6.68 19 6 19 C4.52734375 16.98828125 4.52734375 16.98828125 2.9375 14.3125 C2.41027344 13.44238281 1.88304688 12.57226562 1.33984375 11.67578125 C-0.37125723 8.25856792 -1.27955772 5.47766225 -0.5625 1.6875 C-0.376875 1.130625 -0.19125 0.57375 0 0 Z " fill="#3E3C39" transform="translate(110,299)"/>
<path d="M0 0 C0 0.66 0 1.32 0 2 C-2.56126064 3.294174 -5.12393358 4.58540784 -7.6875 5.875 C-8.40873047 6.23980469 -9.12996094 6.60460937 -9.87304688 6.98046875 C-13.53125364 8.8179242 -17.1611695 10.56138502 -21 12 C-19.84127746 8.52383239 -19.38476605 8.36445019 -16.2890625 6.73828125 C-15.53882813 6.34189453 -14.78859375 5.94550781 -14.015625 5.53710938 C-12.83226562 4.93092773 -12.83226562 4.93092773 -11.625 4.3125 C-10.84382812 3.89677734 -10.06265625 3.48105469 -9.2578125 3.05273438 C-3.40297876 0 -3.40297876 0 0 0 Z " fill="#605748" transform="translate(192,105)"/>
<path d="M0 0 C3.65863683 3.18038365 5.48771648 6.65832322 7.3125 11.0625 C7.58900391 11.68705078 7.86550781 12.31160156 8.15039062 12.95507812 C10.12676222 17.61971335 10.12676222 17.61971335 9 21 C6.98578626 18.98578626 6.33459733 17.74173117 5.2734375 15.15625 C4.9640625 14.40472656 4.6546875 13.65320313 4.3359375 12.87890625 C4.01882813 12.09386719 3.70171875 11.30882812 3.375 10.5 C3.05015625 9.71496094 2.7253125 8.92992187 2.390625 8.12109375 C0 2.26506696 0 2.26506696 0 0 Z " fill="#BA7E27" transform="translate(324,294)"/>
<path d="M0 0 C2.8624741 0.62651427 5.28081653 1.52170517 7.890625 2.84765625 C8.95410156 3.38422852 8.95410156 3.38422852 10.0390625 3.93164062 C10.76867187 4.30482422 11.49828125 4.67800781 12.25 5.0625 C12.99507812 5.43955078 13.74015625 5.81660156 14.5078125 6.20507812 C16.34037531 7.13310673 18.17043676 8.06607179 20 9 C20 9.66 20 10.32 20 11 C12.93497505 9.55488126 6.95950877 5.98553899 1 2 C0.67 1.34 0.34 0.68 0 0 Z " fill="#756245" transform="translate(168,387)"/>
<path d="M0 0 C0.99 0.33 1.98 0.66 3 1 C2.39671875 1.65226563 1.7934375 2.30453125 1.171875 2.9765625 C-3.99201546 8.51759829 -3.99201546 8.51759829 -8.4375 14.625 C-9.2109375 15.800625 -9.2109375 15.800625 -10 17 C-10.66 17 -11.32 17 -12 17 C-10.63930324 14.09070073 -9.07406828 11.61244684 -7.125 9.0625 C-6.5990625 8.37285156 -6.073125 7.68320313 -5.53125 6.97265625 C-3.71167072 4.62855539 -1.87125201 2.3030794 0 0 Z " fill="#5D5A56" transform="translate(140,154)"/>
<path d="M0 0 C3.04662882 2.56417147 4.20951098 5.40969231 5.6875 9.0625 C6.34298828 10.65771484 6.34298828 10.65771484 7.01171875 12.28515625 C8 15 8 15 8 17 C7.34 17 6.68 17 6 17 C4.99063464 14.921188 3.99282154 12.8367638 3 10.75 C2.443125 9.58984375 1.88625 8.4296875 1.3125 7.234375 C0 4 0 4 0 0 Z " fill="#856637" transform="translate(259,143)"/>
<path d="M0 0 C3 1 3 1 4.6875 4.125 C6.14581407 7.79357134 6.24159551 11.05393993 6 15 C4.68 14.67 3.36 14.34 2 14 C2.66 14 3.32 14 4 14 C3.79503906 13.32453125 3.59007812 12.6490625 3.37890625 11.953125 C3.10949219 11.06109375 2.84007812 10.1690625 2.5625 9.25 C2.29566406 8.36828125 2.02882813 7.4865625 1.75390625 6.578125 C1.11531506 4.39434165 0.53224167 2.21164502 0 0 Z " fill="#BE8025" transform="translate(334,318)"/>
<path d="M0 0 C5.68502535 1.64566523 10.76681636 4.29032784 16 7 C12.99353048 8.30230734 11.90644333 7.96485975 8.765625 6.78515625 C7.60546875 6.21667969 6.4453125 5.64820312 5.25 5.0625 C3.49429687 4.21365234 3.49429687 4.21365234 1.703125 3.34765625 C0.81109375 2.90292969 -0.0809375 2.45820312 -1 2 C-0.67 1.34 -0.34 0.68 0 0 Z " fill="#A2732E" transform="translate(314,105)"/>
<path d="M0 0 C0.66 0.33 1.32 0.66 2 1 C1.21658881 2.98244892 0.42302514 4.96088859 -0.375 6.9375 C-0.81585938 8.03964844 -1.25671875 9.14179688 -1.7109375 10.27734375 C-3 13 -3 13 -5 14 C-4.46515599 8.65155992 -2.53309233 4.64203897 0 0 Z " fill="#75654C" transform="translate(185,268)"/>
<path d="M0 0 C0.66 0 1.32 0 2 0 C2.83764268 1.95649397 3.66999059 3.91525556 4.5 5.875 C5.19609375 7.51082031 5.19609375 7.51082031 5.90625 9.1796875 C7 12 7 12 7 14 C6.34 14 5.68 14 5 14 C4.15973604 12.23244474 3.32801278 10.46082737 2.5 8.6875 C2.0359375 7.70136719 1.571875 6.71523437 1.09375 5.69921875 C0 3 0 3 0 0 Z " fill="#A07332" transform="translate(291,217)"/>
<path d="M0 0 C0.99 0.33 1.98 0.66 3 1 C-0.3 3.97 -3.6 6.94 -7 10 C-7.33 9.01 -7.66 8.02 -8 7 C-6.74057614 5.80040625 -5.46704714 4.61560557 -4.1875 3.4375 C-3.12595703 2.44556641 -3.12595703 2.44556641 -2.04296875 1.43359375 C-1.36878906 0.96050781 -0.69460937 0.48742187 0 0 Z " fill="#5D5850" transform="translate(154,141)"/>
<path d="M0 0 C4.43458973 1.3937282 6.87378374 3.60582235 10 7 C9.67 7.66 9.34 8.32 9 9 C7.49428343 7.88266271 5.99555708 6.75589965 4.5 5.625 C3.6646875 4.99851563 2.829375 4.37203125 1.96875 3.7265625 C1.3190625 3.15679687 0.669375 2.58703125 0 2 C0 1.34 0 0.68 0 0 Z " fill="#B67D28" transform="translate(346,124)"/>
<path d="M0 0 C3.26460973 1.80412643 4.88929795 2.83394693 7 6 C4 6 4 6 1.8125 4.125 C0 2 0 2 0 0 Z " fill="#BB812B" transform="translate(314,314)"/>
<path d="M0 0 C4.31392226 0.4793247 6.16569547 1.7457985 9 5 C5.12867972 4.42647107 2.91827204 2.51295648 0 0 Z " fill="#AF7C31" transform="translate(292,299)"/>
<path d="M0 0 C0.99 0 1.98 0 3 0 C3 1.98 3 3.96 3 6 C2.01 5.67 1.02 5.34 0 5 C-0.33 4.01 -0.66 3.02 -1 2 C-0.67 1.34 -0.34 0.68 0 0 Z " fill="#5C5B5A" transform="translate(102,278)"/>
</svg>
