<?xml version="1.0" encoding="UTF-8"?>
<svg version="1.1" xmlns="http://www.w3.org/2000/svg" width="500" height="500">
<path d="M0 0 C3.25320412 2.8916321 6.36843016 5.90685768 9.4375 8.9921875 C10.15196289 9.7027832 10.15196289 9.7027832 10.88085938 10.42773438 C18.88842572 18.4794804 25.37103813 27.41271977 31.4375 36.9921875 C31.84242676 37.63140137 32.24735352 38.27061523 32.66455078 38.92919922 C48.08734397 63.73424464 54.8944055 91.91812477 54.8125 120.9296875 C54.81162384 121.6929837 54.81074768 122.45627991 54.80984497 123.2427063 C54.65479321 164.40760876 39.27295902 202.50507969 10.4375 231.9921875 C9.49369939 232.99637035 8.55100742 234.00159623 7.609375 235.0078125 C-8.30489797 251.76758994 -28.78648761 264.39753948 -50.5625 271.9921875 C-52.31240234 272.64960937 -52.31240234 272.64960937 -54.09765625 273.3203125 C-92.56523617 286.7495833 -137.83181558 283.27948837 -174.5625 265.9921875 C-201.26202696 252.47217983 -201.26202696 252.47217983 -206.73828125 239.8671875 C-209.36618958 230.70064471 -208.2803715 222.68882292 -204.52734375 214.17578125 C-204.06130989 213.0828627 -204.06130989 213.0828627 -203.58586121 211.96786499 C-202.58890433 209.63780539 -201.57630487 207.31495907 -200.5625 204.9921875 C-199.90334441 203.46152147 -199.24497663 201.93051594 -198.58740234 200.39916992 C-196.53421671 195.63077169 -194.45613257 190.87344036 -192.375 186.1171875 C-191.62348994 184.39634136 -190.87202574 182.67547519 -190.12060547 180.95458984 C-184.89227769 168.99008725 -179.61055587 157.05011093 -174.29296875 145.125 C-171.67648536 139.25561616 -169.08436469 133.37577245 -166.5 127.4921875 C-155.19707378 101.76814055 -143.86978057 76.05310493 -132.41015625 50.3984375 C-130.58802583 46.31521764 -128.78864447 42.22299338 -127.00708008 38.12197876 C-125.83809042 35.43558158 -124.65986067 32.75328923 -123.48040771 30.07147217 C-122.91827981 28.78722148 -122.36024729 27.50116895 -121.80670166 26.2131958 C-121.03947097 24.42912069 -120.25634468 22.65190725 -119.47265625 20.875 C-119.03058838 19.85809082 -118.58852051 18.84118164 -118.13305664 17.79345703 C-116.02996622 14.04235187 -113.4550586 10.9384668 -109.5625 8.9921875 C-105.20424615 8.62899968 -102.50186448 8.61644171 -98.4375 10.2421875 C-91.07784634 17.28185622 -87.70041715 29.06010517 -83.75 38.3046875 C-82.9061898 40.26752916 -82.06099707 42.22977195 -81.21572876 44.19198608 C-80.61588512 45.58458512 -80.01642496 46.9773494 -79.41732788 48.37026978 C-76.02408493 56.25583372 -72.58902892 64.12309365 -69.15438843 71.99069214 C-59.26589775 94.64503386 -49.41520165 117.315431 -39.66436768 140.02941895 C-39.02863625 141.51013098 -38.39254666 142.99068931 -37.75604248 144.47106934 C-34.10138126 152.97377062 -30.49964217 161.49419331 -27.02383423 170.07185364 C-24.57093637 176.08860788 -21.84020543 181.95699716 -19.04296875 187.8203125 C-16.54184771 193.17891483 -14.99376486 196.963595 -15.5625 202.9921875 C-18.5625 204.9921875 -18.5625 204.9921875 -21.02441406 204.82714844 C-23.92178987 203.87399095 -25.11317381 202.85685277 -27.171875 200.6328125 C-28.16682983 199.58685913 -28.16682983 199.58685913 -29.18188477 198.51977539 C-29.88498779 197.76817139 -30.58809082 197.01656738 -31.3125 196.2421875 C-58.45516115 168.22329268 -95.19867757 148.36547409 -134.5625 145.9921875 C-133.5625 143.9921875 -133.5625 143.9921875 -130.40234375 142.890625 C-107.07953562 137.43360987 -79.50527351 146.38856664 -59.70117188 158.64404297 C-54.5410761 161.93170486 -49.52995603 165.4215394 -44.5625 168.9921875 C-42.57415106 170.34442481 -40.5713813 171.67055506 -38.5625 172.9921875 C-42.10813664 163.28833985 -46.87576755 154.21465995 -51.56396484 145.03027344 C-56.03470267 136.25826216 -60.21283177 127.40061621 -64.21337891 118.40405273 C-66.48927381 113.30980401 -68.85125485 108.28062832 -71.375 103.3046875 C-74.68328159 96.77928438 -77.89602879 90.21264887 -81.0625 83.6171875 C-81.55516357 82.59214111 -82.04782715 81.56709473 -82.55541992 80.51098633 C-85.68388797 73.97871375 -88.76467142 67.42594549 -91.8203125 60.859375 C-92.55134454 59.29211402 -93.28246419 57.72489389 -94.01367188 56.15771484 C-95.45173937 53.07532604 -96.88129043 49.98916535 -98.30664062 46.90087891 C-98.96713787 45.48325394 -99.62793085 44.06576671 -100.2890625 42.6484375 C-100.59063263 41.98923309 -100.89220276 41.33002869 -101.20291138 40.65084839 C-102.67324263 37.18744395 -102.67324263 37.18744395 -105.5625 34.9921875 C-108.49431432 41.11526874 -111.10536091 47.30470849 -113.4375 53.6796875 C-115.39503606 59.01425579 -117.49074067 64.2433937 -119.8125 69.4296875 C-123.41313072 77.48195126 -126.67496921 85.66114386 -129.92285156 93.86108398 C-137.6852335 113.44715867 -137.6852335 113.44715867 -140.625 119.0546875 C-142.16141213 122.02957313 -143.33097493 125.01948833 -144.4375 128.1796875 C-145.82755921 132.1337441 -147.40719918 135.89743245 -149.2109375 139.6796875 C-152.8256798 147.43991244 -156.05890843 155.34175117 -159.28225708 163.27099609 C-160.68791915 166.72796127 -162.10094332 170.1819022 -163.51344299 173.63607788 C-164.55829405 176.19152094 -165.6022105 178.74734424 -166.64599609 181.30322266 C-169.12544269 187.37183787 -171.61454184 193.43631908 -174.125 199.4921875 C-174.51445801 200.43416992 -174.90391602 201.37615234 -175.30517578 202.34667969 C-178.07668401 208.98822559 -181.10732836 215.46352224 -184.3828125 221.87109375 C-185.78933806 225.59233192 -186.13188245 228.04718052 -185.5625 231.9921875 C-182.00726348 236.77753585 -177.01179567 239.25108759 -171.8125 241.9296875 C-170.55385132 242.58155029 -170.55385132 242.58155029 -169.26977539 243.24658203 C-136.64623265 259.74718615 -98.46844471 262.8224644 -63.5625 251.9921875 C-48.35848259 246.9241817 -32.2621461 239.5230904 -20 229.0546875 C-17.5625 226.9921875 -17.5625 226.9921875 -15.5625 226.9921875 C-15.5625 226.3321875 -15.5625 225.6721875 -15.5625 224.9921875 C-14.12890625 223.58203125 -14.12890625 223.58203125 -12.125 221.9296875 C12.89913995 200.41770754 28.75491403 168.34378666 32.15625 135.5078125 C34.94176389 96.47490634 25.8474138 59.6323138 0.2109375 29.36328125 C-8.21678062 18.97381144 -8.21678062 18.97381144 -18.5625 10.9921875 C-18.5625 10.3321875 -18.5625 9.6721875 -18.5625 8.9921875 C-19.325625 8.7034375 -20.08875 8.4146875 -20.875 8.1171875 C-23.5625 6.9921875 -23.5625 6.9921875 -26.5625 4.9921875 C-26.5625 4.3321875 -26.5625 3.6721875 -26.5625 2.9921875 C-27.5525 2.9921875 -28.5425 2.9921875 -29.5625 2.9921875 C-29.5625 2.3321875 -29.5625 1.6721875 -29.5625 0.9921875 C-30.09875 0.8890625 -30.635 0.7859375 -31.1875 0.6796875 C-34.18752044 -0.18873947 -36.8004535 -1.56401546 -39.5625 -3.0078125 C-39.5625 -3.6678125 -39.5625 -4.3278125 -39.5625 -5.0078125 C-40.3771875 -5.26820312 -41.191875 -5.52859375 -42.03125 -5.796875 C-45.32831352 -6.92750519 -48.54509022 -8.17318458 -51.77856445 -9.4699707 C-90.09144394 -24.78283617 -129.62349176 -24.20607445 -167.5625 -8.0078125 C-175.8117552 -4.24327849 -183.44583806 0.2932519 -190.70703125 5.7421875 C-192.5625 6.9921875 -192.5625 6.9921875 -194.5625 6.9921875 C-194.5625 7.6521875 -194.5625 8.3121875 -194.5625 8.9921875 C-195.91185524 10.15269392 -197.32103148 11.24375221 -198.75 12.3046875 C-227.25313397 34.67984924 -245.73614577 69.50756645 -250.48144531 105.30102539 C-253.60926284 131.54910138 -250.10460875 155.38475988 -240.5625 179.9921875 C-239.9889212 181.51358384 -239.41720272 183.03568329 -238.84765625 184.55859375 C-238.42355469 185.69167969 -237.99945313 186.82476562 -237.5625 187.9921875 C-238.2225 187.9921875 -238.8825 187.9921875 -239.5625 187.9921875 C-243.2671925 183.0198416 -245.92425136 178.21511173 -246.5625 171.9921875 C-247.2225 171.6621875 -247.8825 171.3321875 -248.5625 170.9921875 C-251.25637425 165.18131738 -252.42804924 158.60723358 -253.8046875 152.390625 C-254.30648633 150.14029005 -254.83226167 147.89515671 -255.3828125 145.65625 C-264.58987491 108.02349974 -255.26066775 67.77116977 -235.5625 34.9921875 C-233.04571777 31.1973518 -230.36346436 27.58074976 -227.5625 23.9921875 C-226.98371094 23.20972656 -226.40492188 22.42726562 -225.80859375 21.62109375 C-200.89253216 -11.15186847 -163.88200589 -30.88936896 -123.5625 -37.0078125 C-79.13688061 -42.71830468 -33.97548868 -29.23339413 0 0 Z " fill="#F1F1F1" transform="translate(355.5625,130.0078125)"/>
<path d="M0 0 C3.25320412 2.8916321 6.36843016 5.90685768 9.4375 8.9921875 C10.15196289 9.7027832 10.15196289 9.7027832 10.88085938 10.42773438 C18.88842572 18.4794804 25.37103813 27.41271977 31.4375 36.9921875 C31.84242676 37.63140137 32.24735352 38.27061523 32.66455078 38.92919922 C48.08734397 63.73424464 54.8944055 91.91812477 54.8125 120.9296875 C54.81162384 121.6929837 54.81074768 122.45627991 54.80984497 123.2427063 C54.65479321 164.40760876 39.27295902 202.50507969 10.4375 231.9921875 C9.49369939 232.99637035 8.55100742 234.00159623 7.609375 235.0078125 C-8.30489797 251.76758994 -28.78648761 264.39753948 -50.5625 271.9921875 C-52.31240234 272.64960937 -52.31240234 272.64960937 -54.09765625 273.3203125 C-92.56523617 286.7495833 -137.83181558 283.27948837 -174.5625 265.9921875 C-201.26202696 252.47217983 -201.26202696 252.47217983 -206.73828125 239.8671875 C-209.36618958 230.70064471 -208.2803715 222.68882292 -204.52734375 214.17578125 C-204.06130989 213.0828627 -204.06130989 213.0828627 -203.58586121 211.96786499 C-202.58890433 209.63780539 -201.57630487 207.31495907 -200.5625 204.9921875 C-199.90334441 203.46152147 -199.24497663 201.93051594 -198.58740234 200.39916992 C-196.53421671 195.63077169 -194.45613257 190.87344036 -192.375 186.1171875 C-191.62348994 184.39634136 -190.87202574 182.67547519 -190.12060547 180.95458984 C-184.89227769 168.99008725 -179.61055587 157.05011093 -174.29296875 145.125 C-171.67648546 139.2556164 -169.08432616 133.37578925 -166.5 127.4921875 C-161.22490231 115.48486022 -155.92601377 103.48809114 -150.625 91.4921875 C-149.99656693 90.06990845 -149.99656693 90.06990845 -149.35543823 88.61889648 C-148.14464358 85.87868483 -146.93368696 83.13854483 -145.72265625 80.3984375 C-145.36261505 79.58366943 -145.00257385 78.76890137 -144.63162231 77.92944336 C-142.28195385 72.61403607 -139.92474839 67.30201579 -137.5625 61.9921875 C-136.0775 62.4871875 -136.0775 62.4871875 -134.5625 62.9921875 C-135.13467008 67.266867 -136.15785675 70.79787674 -137.90625 74.734375 C-138.40133057 75.86093506 -138.89641113 76.98749512 -139.40649414 78.14819336 C-139.67462921 78.75017548 -139.94276428 79.35215759 -140.21902466 79.97238159 C-141.71159686 83.32533631 -143.17979661 86.68899653 -144.65234375 90.05078125 C-144.96852158 90.77090897 -145.2846994 91.49103668 -145.61045837 92.23298645 C-149.35304586 100.7683023 -152.98850316 109.34877339 -156.625 117.9296875 C-157.70239991 120.46997563 -158.78001658 123.01017172 -159.85766602 125.550354 C-160.60011656 127.30043353 -161.34246566 129.0505561 -162.0847168 130.80072021 C-165.328319 138.44657775 -168.5854589 146.0866299 -171.84423828 153.72602844 C-175.22019847 161.64177216 -178.58659337 169.56154611 -181.94750977 177.48368835 C-184.29589335 183.01736383 -186.65475633 188.54638669 -189.02313232 194.0715332 C-190.4435547 197.39173228 -191.85409746 200.71605977 -193.26190186 204.04162598 C-193.91088611 205.56905807 -194.56396108 207.0947598 -195.22149658 208.61853027 C-201.30460599 221.46123803 -201.30460599 221.46123803 -200.1875 235.0546875 C-189.40045712 253.37094152 -160.87080361 262.29238225 -141.58276367 267.44628906 C-129.94811439 270.33822174 -118.27522408 271.35873352 -106.3125 271.3046875 C-105.05195801 271.30122314 -103.79141602 271.29775879 -102.49267578 271.29418945 C-92.57330317 271.17923194 -83.21712914 270.22256172 -73.5625 267.9921875 C-72.59441406 267.775625 -71.62632812 267.5590625 -70.62890625 267.3359375 C-67.89864364 266.65438606 -65.24223135 265.8513101 -62.5625 264.9921875 C-60.72751953 264.42951172 -60.72751953 264.42951172 -58.85546875 263.85546875 C-20.66700923 251.62073028 10.61460823 224.62560858 28.95556641 189.09838867 C47.03048873 153.15402281 50.43079832 112.4170185 38.4375 73.9921875 C36.42504024 68.18385873 34.00603714 62.573172 31.4375 56.9921875 C31.15648437 56.37118164 30.87546875 55.75017578 30.5859375 55.11035156 C14.6741747 20.29407618 -15.49360552 -6.48482157 -50.5625 -21.0078125 C-51.26858398 -21.31485107 -51.97466797 -21.62188965 -52.70214844 -21.93823242 C-59.04416159 -24.61302238 -65.33212988 -26.30174052 -72.0625 -27.6953125 C-73.03058594 -27.90736328 -73.99867188 -28.11941406 -74.99609375 -28.33789062 C-112.79372475 -36.37940004 -152.54322169 -27.78248156 -184.94042969 -7.12866211 C-187.87940272 -5.17279626 -190.73793311 -3.12491613 -193.5625 -1.0078125 C-194.51898438 -0.29238281 -195.47546875 0.42304688 -196.4609375 1.16015625 C-222.90608242 21.96013413 -244.17646774 53.96552511 -251.5625 86.9921875 C-251.82522705 87.9519751 -251.82522705 87.9519751 -252.09326172 88.93115234 C-254.10982549 97.14208562 -253.86440094 105.47251954 -253.82324219 113.87207031 C-253.81241098 116.51389927 -253.82324119 119.15506525 -253.8359375 121.796875 C-253.83461781 123.476564 -253.83205937 125.15625259 -253.828125 126.8359375 C-253.83419769 128.02020325 -253.83419769 128.02020325 -253.84039307 129.22839355 C-253.96861122 133.57641637 -253.96861122 133.57641637 -251.5625 136.9921875 C-251.0793457 139.01318359 -251.0793457 139.01318359 -250.73828125 141.515625 C-250.600271 142.4449585 -250.46226074 143.37429199 -250.32006836 144.33178711 C-250.1731958 145.33346924 -250.02632324 146.33515137 -249.875 147.3671875 C-248.05640863 158.81001972 -244.73911685 169.22142398 -240.5625 179.9921875 C-239.9889212 181.51358384 -239.41720272 183.03568329 -238.84765625 184.55859375 C-238.42355469 185.69167969 -237.99945313 186.82476562 -237.5625 187.9921875 C-238.2225 187.9921875 -238.8825 187.9921875 -239.5625 187.9921875 C-243.2671925 183.0198416 -245.92425136 178.21511173 -246.5625 171.9921875 C-247.2225 171.6621875 -247.8825 171.3321875 -248.5625 170.9921875 C-251.25637425 165.18131738 -252.42804924 158.60723358 -253.8046875 152.390625 C-254.30648633 150.14029005 -254.83226167 147.89515671 -255.3828125 145.65625 C-264.58987491 108.02349974 -255.26066775 67.77116977 -235.5625 34.9921875 C-233.04571777 31.1973518 -230.36346436 27.58074976 -227.5625 23.9921875 C-226.98371094 23.20972656 -226.40492188 22.42726562 -225.80859375 21.62109375 C-200.89253216 -11.15186847 -163.88200589 -30.88936896 -123.5625 -37.0078125 C-79.13688061 -42.71830468 -33.97548868 -29.23339413 0 0 Z " fill="#BABABA" transform="translate(355.5625,130.0078125)"/>
<path d="M0 0 C3.00513049 3.55136154 4.71128301 7.56014331 6.51953125 11.796875 C7.02208435 12.95635902 7.02208435 12.95635902 7.53479004 14.13926697 C8.63223963 16.67409992 9.72233126 19.21202831 10.8125 21.75 C11.57715364 23.51953113 12.34237794 25.28881577 13.1081543 27.05786133 C14.66386968 30.65249327 16.21736112 34.24807423 17.76953125 37.84423828 C20.6383575 44.48393964 23.54473181 51.10701475 26.45303345 57.72949219 C32.55214141 71.62427495 38.55198323 85.56032438 44.51025391 99.51611328 C46.05831929 103.13638418 47.6122241 106.75411894 49.16796875 110.37109375 C53.73049401 120.98347224 58.27593754 131.59632925 62.61914062 142.30053711 C65.05131549 148.2399021 67.75643422 154.03637014 70.51953125 159.828125 C73.02065229 165.18672733 74.56873514 168.9714075 74 175 C71 177 71 177 68.53808594 176.83496094 C65.64071013 175.88180345 64.44932619 174.86466527 62.390625 172.640625 C61.39567017 171.59467163 61.39567017 171.59467163 60.38061523 170.52758789 C59.67751221 169.77598389 58.97440918 169.02437988 58.25 168.25 C31.10733885 140.23110518 -5.63617757 120.37328659 -45 118 C-44 116 -44 116 -40.9140625 114.8984375 C-37.06088016 113.89727884 -33.36060111 113.66558657 -29.375 113.625 C-28.10398438 113.59664063 -26.83296875 113.56828125 -25.5234375 113.5390625 C-21.36655527 114.08286749 -20.18647461 115.39113408 -17 118 C-14.14363471 119.00964732 -11.20672839 119.60385919 -8.25 120.25 C7.40728441 124.05909945 20.3888906 131.08563065 33 141 C33.93070312 141.73089844 34.86140625 142.46179688 35.8203125 143.21484375 C38.580195 145.43964699 41.2952335 147.70851297 44 150 C44.85972412 150.72437256 44.85972412 150.72437256 45.73681641 151.46337891 C47.59901207 153.03385194 49.45664785 154.60953729 51.3125 156.1875 C51.88742187 156.67460449 52.46234375 157.16170898 53.0546875 157.66357422 C55.92374058 160.12074178 58.62585335 162.62542513 61.23046875 165.36328125 C63.72480479 168.34476381 63.72480479 168.34476381 67 168 C66.3128277 163.16768488 64.43323433 159.02247552 62.4921875 154.58984375 C62.13513229 153.76325256 61.77807709 152.93666138 61.41020203 152.08502197 C60.63926071 150.30112049 59.86623083 148.51812046 59.09133911 146.7359314 C57.01496258 141.95881192 54.95529961 137.17449346 52.89453125 132.390625 C52.47652756 131.42114426 52.05852386 130.45166351 51.62785339 129.45280457 C47.87025333 120.72609516 44.19955298 111.96500488 40.5625 103.1875 C33.89628732 87.10973178 27.13307381 71.07386091 20.34399414 55.04760742 C19.95201843 54.12132034 19.56004272 53.19503326 19.15618896 52.24067688 C18.42734741 50.5183812 17.69772218 48.79641682 16.96710205 47.07487488 C16.30554194 45.51111352 15.64836816 43.94548786 14.9960022 42.37786865 C14.28768053 40.68681226 13.56253728 39.00275921 12.82601929 37.3237915 C12.44990509 36.44237488 12.07379089 35.56095825 11.6862793 34.65283203 C11.33969772 33.85732941 10.99311615 33.06182678 10.6360321 32.24221802 C9.92264538 29.72730004 10.13803409 28.43357906 11 26 C10.01 25.67 9.02 25.34 8 25 C7.25 23.0625 7.25 23.0625 7 21 C7.33 20.34 7.66 19.68 8 19 C6.68 18.34 5.36 17.68 4 17 C4.33 15.35 4.66 13.7 5 12 C4.01 11.67 3.02 11.34 2 11 C1.25 9.0625 1.25 9.0625 1 7 C1.33 6.34 1.66 5.68 2 5 C1.01 4.67 0.02 4.34 -1 4 C-0.67 2.68 -0.34 1.36 0 0 Z " fill="#A9A9A9" transform="translate(266,158)"/>
<path d="M0 0 C0.33 0 0.66 0 1 0 C0.85816304 1.75032844 0.71136571 3.50025534 0.5625 5.25 C0.48128906 6.22453125 0.40007812 7.1990625 0.31640625 8.203125 C0 11 0 11 -0.51069641 12.9303894 C-1.34141046 16.44406604 -1.16299732 20.03975004 -1.16796875 23.6328125 C-1.17129715 24.46585907 -1.17462555 25.29890564 -1.17805481 26.15719604 C-1.183108 27.91387379 -1.18546363 29.67056109 -1.18530273 31.42724609 C-1.18749774 34.12222892 -1.20569341 36.81680784 -1.22460938 39.51171875 C-1.22754187 41.2187486 -1.22952763 42.92578039 -1.23046875 44.6328125 C-1.23765427 45.44114532 -1.24483978 46.24947815 -1.25224304 47.08230591 C-1.41741274 51.51132468 -1.41741274 51.51132468 1 55 C1.4831543 57.02099609 1.4831543 57.02099609 1.82421875 59.5234375 C1.962229 60.452771 2.10023926 61.38210449 2.24243164 62.33959961 C2.3893042 63.34128174 2.53617676 64.34296387 2.6875 65.375 C4.50609137 76.81783222 7.82338315 87.22923648 12 98 C12.5735788 99.52139634 13.14529728 101.04349579 13.71484375 102.56640625 C14.13894531 103.69949219 14.56304687 104.83257812 15 106 C14.34 106 13.68 106 13 106 C9.2953075 101.0276541 6.63824864 96.22292423 6 90 C5.34 89.67 4.68 89.34 4 89 C1.30612575 83.18912988 0.13445076 76.61504608 -1.2421875 70.3984375 C-1.74398633 68.14810255 -2.26976167 65.90296921 -2.8203125 63.6640625 C-7.4111631 44.89951783 -8.45854054 21.78524761 -3 3 C-2.34 3 -1.68 3 -1 3 C-0.67 2.01 -0.34 1.02 0 0 Z " fill="#A2A2A2" transform="translate(103,212)"/>
<path d="M0 0 C5.37528008 2.58426927 7.60195519 5.72430141 10 11 C9.67 11.99 9.34 12.98 9 14 C9 13.34 9 12.68 9 12 C8.4225 11.79375 7.845 11.5875 7.25 11.375 C4.15522364 9.48374778 2.8081237 7.09964063 1 4 C1 3.34 1 2.68 1 2 C-0.40016086 2.17692664 -1.79534589 2.39335282 -3.1875 2.625 C-3.96480469 2.74101562 -4.74210937 2.85703125 -5.54296875 2.9765625 C-9.78038375 4.74159069 -12.06579743 8.04041929 -13.9855957 12.06738281 C-15.20443123 15.07200059 -16.31081884 18.11001174 -17.40429688 21.16210938 C-17.68466797 21.89880859 -17.96503906 22.63550781 -18.25390625 23.39453125 C-18.49439697 24.06331299 -18.7348877 24.73209473 -18.98266602 25.42114258 C-20 27 -20 27 -22.10913086 27.7253418 C-22.73311768 27.815979 -23.35710449 27.90661621 -24 28 C-22.2628522 21.91998269 -19.87057208 16.30567059 -17.125 10.625 C-16.79757813 9.92310547 -16.47015625 9.22121094 -16.1328125 8.49804688 C-12.66338994 1.48466339 -8.07505422 -1.3960801 0 0 Z " fill="#999999" transform="translate(254,139)"/>
<path d="M0 0 C0.33 0 0.66 0 1 0 C1.13535156 1.13953125 1.27070312 2.2790625 1.41015625 3.453125 C3.05714745 15.9806855 6.48341212 27.23160749 11 39 C11.5741944 40.52686385 12.14718924 42.05417958 12.71875 43.58203125 C13.1415625 44.70996094 13.564375 45.83789062 14 47 C13.34 47 12.68 47 12 47 C8.2953075 42.0276541 5.63824864 37.22292423 5 31 C4.34 30.67 3.68 30.34 3 30 C2.21875 28.21484375 2.21875 28.21484375 1.5 25.9375 C1.24605469 25.133125 0.99210937 24.32875 0.73046875 23.5 C-0.28607316 20.0209261 -1.16627082 16.52731576 -2 13 C-1.34 13 -0.68 13 0 13 C0 8.71 0 4.42 0 0 Z " fill="#4B4B4B" transform="translate(104,271)"/>
<path d="M0 0 C2.76161104 3.33029989 4.4689265 6.94308118 6.171875 10.8828125 C6.45855042 11.53829071 6.74522583 12.19376892 7.04058838 12.86911011 C7.64158017 14.24799009 8.23981892 15.62807291 8.83544922 17.00927734 C9.75174042 19.12902629 10.68198568 21.24227623 11.61328125 23.35546875 C12.1961667 24.697546 12.77822731 26.03998185 13.359375 27.3828125 C13.63948425 28.01615509 13.91959351 28.64949768 14.20819092 29.30203247 C14.86585983 30.8436306 15.44096874 32.41995657 16 34 C15.67 34.66 15.34 35.32 15 36 C14.01 35.67 13.02 35.34 12 35 C10.75 31.5625 10.75 31.5625 10 28 C10.33 27.34 10.66 26.68 11 26 C10.01 25.67 9.02 25.34 8 25 C7.25 23.0625 7.25 23.0625 7 21 C7.33 20.34 7.66 19.68 8 19 C6.68 18.34 5.36 17.68 4 17 C4.33 15.35 4.66 13.7 5 12 C4.01 11.67 3.02 11.34 2 11 C1.25 9.0625 1.25 9.0625 1 7 C1.33 6.34 1.66 5.68 2 5 C1.01 4.67 0.02 4.34 -1 4 C-0.67 2.68 -0.34 1.36 0 0 Z " fill="#969696" transform="translate(266,158)"/>
<path d="M0 0 C0.66 0.33 1.32 0.66 2 1 C-1.37498736 4.42431819 -4.75641049 7.84209712 -8.14404297 11.25390625 C-9.29624094 12.41617986 -10.44663992 13.58023967 -11.59521484 14.74609375 C-13.24370414 16.41876279 -14.89849505 18.08496235 -16.5546875 19.75 C-17.06933563 20.2749707 -17.58398376 20.79994141 -18.11422729 21.34082031 C-19.37208852 22.59907712 -20.68187263 23.80502498 -22 25 C-22.66 25 -23.32 25 -24 25 C-22.60279886 21.84234286 -20.95955325 19.71293101 -18.515625 17.28515625 C-17.82726562 16.59873047 -17.13890625 15.91230469 -16.4296875 15.20507812 C-15.71039063 14.49802734 -14.99109375 13.79097656 -14.25 13.0625 C-13.54617187 12.35931641 -12.84234375 11.65613281 -12.1171875 10.93164062 C-8.22708399 7.07407515 -4.27086424 3.43146483 0 0 Z " fill="#808080" transform="translate(157,124)"/>
<path d="M0 0 C4.37412323 0.19262194 6.87213745 1.49888319 10.1875 4.4375 C11.92065011 6.74138534 12.97519424 8.77042732 14.1875 11.4375 C13.8575 12.4275 13.5275 13.4175 13.1875 14.4375 C13.1875 13.7775 13.1875 13.1175 13.1875 12.4375 C12.61 12.23125 12.0325 12.025 11.4375 11.8125 C8.34272364 9.92124778 6.9956237 7.53714063 5.1875 4.4375 C5.1875 3.7775 5.1875 3.1175 5.1875 2.4375 C-0.7525 2.9325 -0.7525 2.9325 -6.8125 3.4375 C-3.8125 0.4375 -3.8125 0.4375 0 0 Z " fill="#777777" transform="translate(249.8125,138.5625)"/>
<path d="M0 0 C1.01513672 -0.0309375 1.01513672 -0.0309375 2.05078125 -0.0625 C4.03125 -0.078125 4.03125 -0.078125 7.5 0.25 C8.49 1.24 9.48 2.23 10.5 3.25 C2.91 3.25 -4.68 3.25 -12.5 3.25 C-8.88953245 -0.36046755 -4.80897325 0.0366398 0 0 Z " fill="#B9B9B8" transform="translate(236.5,271.75)"/>
<path d="M0 0 C2 2 2 2 2.125 5.125 C2.08375 6.07375 2.0425 7.0225 2 8 C2.66 8 3.32 8 4 8 C4.66 6.68 5.32 5.36 6 4 C6.33 9.94 6.66 15.88 7 22 C2.91513514 17.91513514 2.12736743 15.78944133 1.25 10.4375 C1.12496094 9.76525391 0.99992187 9.09300781 0.87109375 8.40039062 C0.35754432 5.55893857 0 2.8923837 0 0 Z " fill="#70706F" transform="translate(98,263)"/>
<path d="M0 0 C0.99 0.33 1.98 0.66 3 1 C2.45658377 4.91259689 1.33420118 6.88773176 -1 10 C-1.165 10.845625 -1.33 11.69125 -1.5 12.5625 C-2.07024187 15.34242909 -2.76551003 16.30178763 -5 18 C-5.66 18 -6.32 18 -7 18 C-5.06375702 11.79522136 -2.74390859 5.89174281 0 0 Z " fill="#939393" transform="translate(226,174)"/>
<path d="M0 0 C0.33 0 0.66 0 1 0 C0.65226572 6.63093294 0.03910346 12.053928 -3 18 C-3.66 17.67 -4.32 17.34 -5 17 C-4.85795259 15.41632253 -4.71119847 13.83306682 -4.5625 12.25 C-4.48128906 11.36828125 -4.40007812 10.4865625 -4.31640625 9.578125 C-4.03761535 7.30649548 -3.61209423 5.20148177 -3 3 C-2.34 3 -1.68 3 -1 3 C-0.67 2.01 -0.34 1.02 0 0 Z " fill="#CACACA" transform="translate(103,212)"/>
<path d="M0 0 C1.60122557 2.40183836 2.53585561 4.15178154 3.5078125 6.79296875 C3.77207031 7.50517578 4.03632812 8.21738281 4.30859375 8.95117188 C4.71271484 10.0581543 4.71271484 10.0581543 5.125 11.1875 C5.40214844 11.93708984 5.67929688 12.68667969 5.96484375 13.45898438 C6.64670402 15.30470959 7.32381559 17.15218787 8 19 C7.34 19 6.68 19 6 19 C4.52734375 16.98828125 4.52734375 16.98828125 2.9375 14.3125 C2.41027344 13.44238281 1.88304688 12.57226562 1.33984375 11.67578125 C-0.37125723 8.25856792 -1.27955772 5.47766225 -0.5625 1.6875 C-0.376875 1.130625 -0.19125 0.57375 0 0 Z " fill="#2C2C2C" transform="translate(110,299)"/>
<path d="M0 0 C3.73829578 4.29904015 7 10.24928075 7 16 C6.01 15.67 5.02 15.34 4 15 C4.33 14.01 4.66 13.02 5 12 C4.01 11.67 3.02 11.34 2 11 C1.25 9.0625 1.25 9.0625 1 7 C1.33 6.34 1.66 5.68 2 5 C1.01 4.67 0.02 4.34 -1 4 C-0.67 2.68 -0.34 1.36 0 0 Z " fill="#858584" transform="translate(266,158)"/>
<path d="M0 0 C0.99 0.33 1.98 0.66 3 1 C2.875 3.75 2.875 3.75 2 7 C-1.0625 9.375 -1.0625 9.375 -4 11 C-3.52269162 9.5410574 -3.04308958 8.08286504 -2.5625 6.625 C-2.29566406 5.81289062 -2.02882812 5.00078125 -1.75390625 4.1640625 C-1 2 -1 2 0 0 Z " fill="#939392" transform="translate(218,192)"/>
<path d="M0 0 C0.66 0.66 1.32 1.32 2 2 C1.79595261 5.19674245 1.53214642 7.30589597 -0.4375 9.875 C-2 11 -2 11 -4 11 C-3.52269162 9.5410574 -3.04308958 8.08286504 -2.5625 6.625 C-2.29566406 5.81289062 -2.02882812 5.00078125 -1.75390625 4.1640625 C-1 2 -1 2 0 0 Z " fill="#999999" transform="translate(234,156)"/>
<path d="M0 0 C2.32590854 3.63423209 2.16265833 6.77088331 2 11 C0.68 9.68 -0.64 8.36 -2 7 C-1.34 4.69 -0.68 2.38 0 0 Z " fill="#BDBDBC" transform="translate(103,274)"/>
<path d="M0 0 C2.56616632 3.84924948 2.55097676 6.4349304 3 11 C2.01 10.67 1.02 10.34 0 10 C-1.51675663 6.58729758 -0.72783588 3.55830874 0 0 Z " fill="#929292" transform="translate(105,286)"/>
<path d="M0 0 C0.33 0 0.66 0 1 0 C2.32854177 5.9180497 1.66464729 8.77729131 -1 14 C-2.13732426 10.59598052 -1.83989957 8.22543336 -1.0625 4.75 C-0.86785156 3.85796875 -0.67320313 2.9659375 -0.47265625 2.046875 C-0.31667969 1.37140625 -0.16070312 0.6959375 0 0 Z " fill="#4E4E4D" transform="translate(100,215)"/>
<path d="M0 0 C0.66 0.33 1.32 0.66 2 1 C1.25 2.9375 1.25 2.9375 0 5 C-2.125 5.75 -2.125 5.75 -4 6 C-3.67 4.35 -3.34 2.7 -3 1 C-2.01 0.67 -1.02 0.34 0 0 Z " fill="#A5A5A5" transform="translate(223,186)"/>
<path d="M0 0 C-2.97 2.475 -2.97 2.475 -6 5 C-6.66 4.67 -7.32 4.34 -8 4 C-7.67 2.68 -7.34 1.36 -7 0 C-3.98968256 -0.93423645 -3.13349732 -1.04449911 0 0 Z " fill="#B9B9B9" transform="translate(248,142)"/>
<path d="M0 0 C2.15377564 2.62198774 3.40072174 4.64404172 4 8 C0.535 6.02 0.535 6.02 -3 4 C-2.67 3.34 -2.34 2.68 -2 2 C-1.34 2.33 -0.68 2.66 0 3 C0 2.01 0 1.02 0 0 Z " fill="#444444" transform="translate(317,300)"/>
</svg>
